<mxfile host="app.diagrams.net" modified="2024-05-16T07:10:45.943Z" agent="Mozilla/5.0 (Macintosh; Intel Mac OS X 10.15; rv:125.0) Gecko/20100101 Firefox/125.0" etag="uB9yp5WnzJealO8mmZSj" version="24.4.2" type="device" pages="2">
  <diagram name="Page-1" id="8cNbrErJJga-5wj4-Vsf" />
  <diagram name="Page-2" id="rHD34NBzHcc_PndNTYWe">
    <mxGraphModel dx="1194" dy="569" grid="0" gridSize="10" guides="1" tooltips="1" connect="1" arrows="1" fold="1" page="1" pageScale="1" pageWidth="1169" pageHeight="827" math="0" shadow="0">
      <root>
        <mxCell id="-cHc0yaHcqs3teTiO_6H-0" />
        <mxCell id="-cHc0yaHcqs3teTiO_6H-1" parent="-cHc0yaHcqs3teTiO_6H-0" />
        <mxCell id="-cHc0yaHcqs3teTiO_6H-2" value="亚马逊云科技" style="points=[[0,0],[0.25,0],[0.5,0],[0.75,0],[1,0],[1,0.25],[1,0.5],[1,0.75],[1,1],[0.75,1],[0.5,1],[0.25,1],[0,1],[0,0.75],[0,0.5],[0,0.25]];outlineConnect=0;gradientColor=none;html=1;whiteSpace=wrap;fontSize=12;fontStyle=0;shape=mxgraph.aws4.group;grIcon=mxgraph.aws4.group_region;strokeColor=#147EBA;fillColor=none;verticalAlign=top;align=left;spacingLeft=30;fontColor=#147EBA;dashed=1;" vertex="1" parent="-cHc0yaHcqs3teTiO_6H-1">
          <mxGeometry x="42" y="22" width="792" height="550" as="geometry" />
        </mxCell>
        <mxCell id="-cHc0yaHcqs3teTiO_6H-3" value="EventBridge" style="fillColor=none;strokeColor=#5A6C86;dashed=1;verticalAlign=top;fontStyle=0;fontColor=#5A6C86;fontSize=14;" vertex="1" parent="-cHc0yaHcqs3teTiO_6H-1">
          <mxGeometry x="75" y="81" width="420" height="461" as="geometry" />
        </mxCell>
        <mxCell id="-cHc0yaHcqs3teTiO_6H-4" value="" style="points=[[0,0,0],[0.25,0,0],[0.5,0,0],[0.75,0,0],[1,0,0],[0,1,0],[0.25,1,0],[0.5,1,0],[0.75,1,0],[1,1,0],[0,0.25,0],[0,0.5,0],[0,0.75,0],[1,0.25,0],[1,0.5,0],[1,0.75,0]];outlineConnect=0;fontColor=#232F3E;gradientColor=#F34482;gradientDirection=north;fillColor=#BC1356;strokeColor=#ffffff;dashed=0;verticalLabelPosition=bottom;verticalAlign=top;align=center;html=1;fontSize=12;fontStyle=0;aspect=fixed;shape=mxgraph.aws4.resourceIcon;resIcon=mxgraph.aws4.eventbridge;" vertex="1" parent="-cHc0yaHcqs3teTiO_6H-1">
          <mxGeometry x="75" y="81" width="50" height="50" as="geometry" />
        </mxCell>
        <mxCell id="-cHc0yaHcqs3teTiO_6H-5" style="edgeStyle=orthogonalEdgeStyle;rounded=0;orthogonalLoop=1;jettySize=auto;html=1;" edge="1" parent="-cHc0yaHcqs3teTiO_6H-1" source="-cHc0yaHcqs3teTiO_6H-8" target="-cHc0yaHcqs3teTiO_6H-19">
          <mxGeometry relative="1" as="geometry">
            <Array as="points">
              <mxPoint x="183" y="331" />
              <mxPoint x="183" y="331" />
            </Array>
          </mxGeometry>
        </mxCell>
        <mxCell id="-cHc0yaHcqs3teTiO_6H-6" style="edgeStyle=orthogonalEdgeStyle;rounded=0;orthogonalLoop=1;jettySize=auto;html=1;" edge="1" parent="-cHc0yaHcqs3teTiO_6H-1" source="-cHc0yaHcqs3teTiO_6H-8">
          <mxGeometry relative="1" as="geometry">
            <mxPoint x="149.8970350988302" y="250.10000000000002" as="sourcePoint" />
            <mxPoint x="321.1724885870676" y="456" as="targetPoint" />
            <Array as="points">
              <mxPoint x="235" y="331" />
              <mxPoint x="235" y="456" />
            </Array>
          </mxGeometry>
        </mxCell>
        <mxCell id="-cHc0yaHcqs3teTiO_6H-7" style="edgeStyle=orthogonalEdgeStyle;rounded=0;orthogonalLoop=1;jettySize=auto;html=1;" edge="1" parent="-cHc0yaHcqs3teTiO_6H-1" source="-cHc0yaHcqs3teTiO_6H-8" target="-cHc0yaHcqs3teTiO_6H-17">
          <mxGeometry relative="1" as="geometry">
            <Array as="points">
              <mxPoint x="235" y="331" />
              <mxPoint x="235" y="179" />
            </Array>
          </mxGeometry>
        </mxCell>
        <mxCell id="-cHc0yaHcqs3teTiO_6H-8" value="默认事件总线" style="outlineConnect=0;fontColor=#232F3E;gradientColor=none;fillColor=#BC1356;strokeColor=none;dashed=0;verticalLabelPosition=bottom;verticalAlign=top;align=center;html=1;fontSize=12;fontStyle=0;aspect=fixed;pointerEvents=1;shape=mxgraph.aws4.eventbridge_default_event_bus_resource;" vertex="1" parent="-cHc0yaHcqs3teTiO_6H-1">
          <mxGeometry x="90" y="310.28000000000003" width="61" height="41.45" as="geometry" />
        </mxCell>
        <mxCell id="-cHc0yaHcqs3teTiO_6H-9" style="edgeStyle=orthogonalEdgeStyle;rounded=0;orthogonalLoop=1;jettySize=auto;html=1;" edge="1" parent="-cHc0yaHcqs3teTiO_6H-1" source="-cHc0yaHcqs3teTiO_6H-10" target="-cHc0yaHcqs3teTiO_6H-14">
          <mxGeometry relative="1" as="geometry" />
        </mxCell>
        <mxCell id="-cHc0yaHcqs3teTiO_6H-10" value="SNS&amp;nbsp;主题" style="outlineConnect=0;fontColor=#232F3E;gradientColor=none;fillColor=#BC1356;strokeColor=none;dashed=0;verticalLabelPosition=bottom;verticalAlign=top;align=center;html=1;fontSize=12;fontStyle=0;aspect=fixed;pointerEvents=1;shape=mxgraph.aws4.topic;" vertex="1" parent="-cHc0yaHcqs3teTiO_6H-1">
          <mxGeometry x="555" y="216.5" width="78" height="67" as="geometry" />
        </mxCell>
        <mxCell id="-cHc0yaHcqs3teTiO_6H-11" style="edgeStyle=orthogonalEdgeStyle;rounded=0;orthogonalLoop=1;jettySize=auto;html=1;" edge="1" parent="-cHc0yaHcqs3teTiO_6H-1" source="-cHc0yaHcqs3teTiO_6H-14" target="-cHc0yaHcqs3teTiO_6H-15">
          <mxGeometry relative="1" as="geometry" />
        </mxCell>
        <mxCell id="-cHc0yaHcqs3teTiO_6H-12" value="" style="edgeStyle=orthogonalEdgeStyle;rounded=0;orthogonalLoop=1;jettySize=auto;html=1;fontSize=14;" edge="1" parent="-cHc0yaHcqs3teTiO_6H-1" source="-cHc0yaHcqs3teTiO_6H-14" target="-cHc0yaHcqs3teTiO_6H-22">
          <mxGeometry relative="1" as="geometry" />
        </mxCell>
        <mxCell id="-cHc0yaHcqs3teTiO_6H-14" value="Lambda" style="outlineConnect=0;fontColor=#232F3E;gradientColor=none;fillColor=#D05C17;strokeColor=none;dashed=0;verticalLabelPosition=bottom;verticalAlign=top;align=center;html=1;fontSize=12;fontStyle=0;aspect=fixed;pointerEvents=1;shape=mxgraph.aws4.lambda_function;" vertex="1" parent="-cHc0yaHcqs3teTiO_6H-1">
          <mxGeometry x="695" y="211" width="78" height="78" as="geometry" />
        </mxCell>
        <mxCell id="-cHc0yaHcqs3teTiO_6H-15" value="Secrets Manager" style="points=[[0,0,0],[0.25,0,0],[0.5,0,0],[0.75,0,0],[1,0,0],[0,1,0],[0.25,1,0],[0.5,1,0],[0.75,1,0],[1,1,0],[0,0.25,0],[0,0.5,0],[0,0.75,0],[1,0.25,0],[1,0.5,0],[1,0.75,0]];outlineConnect=0;fontColor=#232F3E;gradientColor=#F54749;gradientDirection=north;fillColor=#C7131F;strokeColor=#ffffff;dashed=0;verticalLabelPosition=bottom;verticalAlign=top;align=center;html=1;fontSize=12;fontStyle=0;aspect=fixed;shape=mxgraph.aws4.resourceIcon;resIcon=mxgraph.aws4.secrets_manager;" vertex="1" parent="-cHc0yaHcqs3teTiO_6H-1">
          <mxGeometry x="704.5" y="101" width="59" height="59" as="geometry" />
        </mxCell>
        <mxCell id="-cHc0yaHcqs3teTiO_6H-16" style="edgeStyle=orthogonalEdgeStyle;rounded=0;orthogonalLoop=1;jettySize=auto;html=1;" edge="1" parent="-cHc0yaHcqs3teTiO_6H-1" source="-cHc0yaHcqs3teTiO_6H-17" target="-cHc0yaHcqs3teTiO_6H-10">
          <mxGeometry relative="1" as="geometry">
            <Array as="points">
              <mxPoint x="465" y="170" />
              <mxPoint x="465" y="250" />
            </Array>
          </mxGeometry>
        </mxCell>
        <mxCell id="-cHc0yaHcqs3teTiO_6H-17" value="规则：匹配EC2状态变化事件" style="outlineConnect=0;fontColor=#232F3E;gradientColor=none;fillColor=#BC1356;strokeColor=none;dashed=0;verticalLabelPosition=bottom;verticalAlign=top;align=center;html=1;fontSize=12;fontStyle=0;aspect=fixed;pointerEvents=1;shape=mxgraph.aws4.event_event_based;" vertex="1" parent="-cHc0yaHcqs3teTiO_6H-1">
          <mxGeometry x="322" y="148" width="61" height="61" as="geometry" />
        </mxCell>
        <mxCell id="-cHc0yaHcqs3teTiO_6H-18" style="edgeStyle=orthogonalEdgeStyle;rounded=0;orthogonalLoop=1;jettySize=auto;html=1;" edge="1" parent="-cHc0yaHcqs3teTiO_6H-1" source="-cHc0yaHcqs3teTiO_6H-19" target="-cHc0yaHcqs3teTiO_6H-10">
          <mxGeometry relative="1" as="geometry">
            <Array as="points">
              <mxPoint x="465" y="330" />
              <mxPoint x="465" y="250" />
            </Array>
          </mxGeometry>
        </mxCell>
        <mxCell id="-cHc0yaHcqs3teTiO_6H-19" value="规则：匹配亚马逊云科技健康事件" style="outlineConnect=0;fontColor=#232F3E;gradientColor=none;fillColor=#BC1356;strokeColor=none;dashed=0;verticalLabelPosition=bottom;verticalAlign=top;align=center;html=1;fontSize=12;fontStyle=0;aspect=fixed;pointerEvents=1;shape=mxgraph.aws4.event_event_based;" vertex="1" parent="-cHc0yaHcqs3teTiO_6H-1">
          <mxGeometry x="322" y="287" width="61" height="61" as="geometry" />
        </mxCell>
        <mxCell id="-cHc0yaHcqs3teTiO_6H-20" value="IM 客户端" style="outlineConnect=0;gradientColor=none;fontColor=#545B64;strokeColor=none;fillColor=#879196;dashed=0;verticalLabelPosition=bottom;verticalAlign=top;align=center;html=1;fontSize=12;fontStyle=0;aspect=fixed;shape=mxgraph.aws4.illustration_notification;pointerEvents=1" vertex="1" parent="-cHc0yaHcqs3teTiO_6H-1">
          <mxGeometry x="1025" y="224" width="64.2" height="52" as="geometry" />
        </mxCell>
        <mxCell id="-cHc0yaHcqs3teTiO_6H-21" value="" style="edgeStyle=orthogonalEdgeStyle;rounded=0;orthogonalLoop=1;jettySize=auto;html=1;fontSize=14;" edge="1" parent="-cHc0yaHcqs3teTiO_6H-1" source="-cHc0yaHcqs3teTiO_6H-22" target="-cHc0yaHcqs3teTiO_6H-20">
          <mxGeometry relative="1" as="geometry" />
        </mxCell>
        <mxCell id="-cHc0yaHcqs3teTiO_6H-22" value="IM 消息接口" style="outlineConnect=0;fontColor=#232F3E;gradientColor=none;fillColor=#232F3E;strokeColor=none;dashed=0;verticalLabelPosition=bottom;verticalAlign=top;align=center;html=1;fontSize=12;fontStyle=0;aspect=fixed;pointerEvents=1;shape=mxgraph.aws4.internet;" vertex="1" parent="-cHc0yaHcqs3teTiO_6H-1">
          <mxGeometry x="875" y="226" width="78" height="48" as="geometry" />
        </mxCell>
        <mxCell id="-cHc0yaHcqs3teTiO_6H-23" value="&lt;div&gt;&lt;font style=&quot;font-size: 12px&quot;&gt;存储连接密钥信息或&lt;/font&gt;&lt;/div&gt;&lt;div&gt;&lt;font style=&quot;font-size: 12px&quot;&gt;Webhook URL&lt;br&gt;&lt;/font&gt;&lt;/div&gt;" style="text;html=1;align=center;verticalAlign=middle;resizable=0;points=[];autosize=1;fontSize=14;" vertex="1" parent="-cHc0yaHcqs3teTiO_6H-1">
          <mxGeometry x="582" y="107.5" width="126" height="46" as="geometry" />
        </mxCell>
        <mxCell id="-cHc0yaHcqs3teTiO_6H-24" value="&lt;span style=&quot;font-size: 12px&quot;&gt;调用 IM&lt;/span&gt;&lt;span style=&quot;font-size: 12px&quot;&gt;&lt;font style=&quot;font-size: 12px&quot;&gt; 消息&lt;/font&gt;接口&lt;br&gt;发送告警消息&lt;/span&gt;" style="text;html=1;align=center;verticalAlign=middle;resizable=0;points=[];autosize=1;fontSize=14;" vertex="1" parent="-cHc0yaHcqs3teTiO_6H-1">
          <mxGeometry x="686" y="310" width="110" height="46" as="geometry" />
        </mxCell>
        <mxCell id="-cHc0yaHcqs3teTiO_6H-25" value="&lt;span style=&quot;font-size: 12px&quot;&gt;亚马逊云科技&lt;br&gt;产生事件&lt;/span&gt;" style="text;html=1;align=center;verticalAlign=middle;resizable=0;points=[];autosize=1;fontSize=14;" vertex="1" parent="-cHc0yaHcqs3teTiO_6H-1">
          <mxGeometry x="147" y="276" width="90" height="46" as="geometry" />
        </mxCell>
        <mxCell id="-cHc0yaHcqs3teTiO_6H-27" style="edgeStyle=orthogonalEdgeStyle;rounded=0;orthogonalLoop=1;jettySize=auto;html=1;" edge="1" parent="-cHc0yaHcqs3teTiO_6H-1" source="-cHc0yaHcqs3teTiO_6H-28" target="-cHc0yaHcqs3teTiO_6H-10">
          <mxGeometry relative="1" as="geometry">
            <Array as="points">
              <mxPoint x="465" y="456" />
              <mxPoint x="465" y="250" />
            </Array>
          </mxGeometry>
        </mxCell>
        <mxCell id="-cHc0yaHcqs3teTiO_6H-28" value="规则：匹配 Cloud Watch alarm state change 事件" style="outlineConnect=0;fontColor=#232F3E;gradientColor=none;fillColor=#BC1356;strokeColor=none;dashed=0;verticalLabelPosition=bottom;verticalAlign=top;align=center;html=1;fontSize=12;fontStyle=0;aspect=fixed;pointerEvents=1;shape=mxgraph.aws4.event_event_based;" vertex="1" parent="-cHc0yaHcqs3teTiO_6H-1">
          <mxGeometry x="322" y="425" width="61" height="61" as="geometry" />
        </mxCell>
      </root>
    </mxGraphModel>
  </diagram>
</mxfile>
